# xmcd
#
# Track frame offsets:
#	150
#	15283
#	26753
#	42044
#	54504
#	62785
#	75766
#	89614
#	103545
#	115789
#	131524
#	144773
#	159499
#	173479
#	182752
#	194754
#	209329
#	224489
#	238404
#	248859
#
# Disc length: 3521 seconds
#
# Revision: 0
# Processed by: cddbd v1.5.2PL0 Copyright (c) Steve Scherf et al.
# Submitted via: EasyCDDAExtractor 16.0.6.1
#
DISCID=0e0dbf14
DTITLE=Συλλογικός δίσκος - Τραγούδια 45 στροφές-Ζαμπέτας Γιώργος 2
DYEAR=2000
DGENRE=Λαϊκή
TTITLE0=Άνευ ερμηνευτού - Τα τέλια ανάψανε [ορχηστρικό, Γ. Ζαμπέτας]
TTITLE1=Ζαμπέτας Γιώργος-χορωδία - Ο Γιαννάκης [Γ. Ζαμπέτας-Χαρ. Βασιλειάδης]
TTITLE2=Φιλίππου Ελία - Φάνη μου, Θεοφάνη μου [Γ. Ζαμπέτας-Ν. Μπακογιάννης]
TTITLE3=Γιάννα Γιώτα - Τα δειλινά [Γ. Ζαμπέτας-Χαρ. Βασιλειάδης]
TTITLE4=Θεοδώρου Γωγώ - Σταλιά-σταλιά [Γ. Ζαμπέτας-Δ. Χριστοδούλου]
TTITLE5=Λίντα Μαίρη - Θα σπάσω χίλια πιάτα [Γ. Ζαμπέτας-Χαρ. Βασιλειάδης]
TTITLE6=Φιλίππου Ελία - Ο τελευταίος μάγκας [Γ. Ζαμπέτας-Ν. Μπακογιάννης]
TTITLE7=Ναυσικά - Τι ήθελα, τι ήθελα [Γ. Ζαμπέτας-Χαρ. Βασιλειάδης]
TTITLE8=Εμμανουήλ Χρήστος - Ξενητειά [Γ. Ζαμπέτας-Δ. Χριστοδούλου]
TTITLE9=Μανταλένα - Γεια σου φίλε [Γ. Ζαμπέτας-Ηλ. Καραμανέας]
TTITLE10=Δουράκη Μαρία - Μιάς πεντάρας νειάτα [ανέκδ., Γ. Ζαμπέτας-Κώστας Πρετ
TTITLE10=εντέρης]
TTITLE11=Ζαμπέτας Γιώργος - Το γαϊδουράκι μου (Ο μανάβης) [Γ. Ζαμπέτας-Θ. Καπί
TTITLE11=ρης]
TTITLE12=Ναυσικά - Το μονοπάτι [Γ. Ζαμπέτας-Δ. Χριστοδούλου]
TTITLE13=Θεοδώρου Γωγώ-Εμμανουήλ Χρήστος - Τι να φταίει [Γ. Ζαμπέτας-Δ. Χριστο
TTITLE13=δούλου]
TTITLE14=Ροδά Ελένη - Λεβέντη μου [Γ. Ζαμπέτας-Αλ. Καγιάντη]
TTITLE15=Μανταλένα-Ζαμπέτας Γιώργος - Η νυχτερίδα [Γ. Ζαμπέτας-Χαρ. Βασιλειάδη
TTITLE15=ς]
TTITLE16=Ζαμπέτας Γιώργος - Παληά μου γειτονιά [Γ. Ζαμπέτας]
TTITLE17=Άνευ ερμηνευτού - Τα τέλια ανάψανε [τσιφτετέλι Νο 2, μπουζούκι, ορχ.,
TTITLE17=Γ. Ζαμπέτας]
TTITLE18=Φρύνη - Η αγωνία [Γ. Ζαμπέτας-Χαρ. Βασιλειάδης]
TTITLE19=Κόκοτας Σταμάτης - Ποιος ήπιε δάκρυ για νερό [Γ. Ζαμπέτας-Γ. Παπανικο
TTITLE19=λόπουλος]
EXTD=
EXTT0=
EXTT1=
EXTT2=
EXTT3=
EXTT4=
EXTT5=
EXTT6=
EXTT7=
EXTT8=
EXTT9=
EXTT10=
EXTT11=
EXTT12=
EXTT13=
EXTT14=
EXTT15=
EXTT16=
EXTT17=
EXTT18=
EXTT19=
PLAYORDER=
